HIERARCHY
ROOT Hips
{
	OFFSET 0.000000 83.214638 0.000000
	CHANNELS 6 Xposition Yposition Zposition Xrotation Yrotation Zrotation
	JOINT Pelvis
	{
		OFFSET 0.000000 0.000000 0.000000
		CHANNELS 3 Xrotation Yrotation Zrotation
		JOINT LeftUpLeg
		{
			OFFSET 8.479700 -4.795502 -0.379100
			CHANNELS 3 Xrotation Yrotation Zrotation
			JOINT LeftLeg
			{
				OFFSET 0.024144 -32.555107 0.112900
				CHANNELS 3 Xrotation Yrotation Zrotation
				JOINT LeftFoot
				{
					OFFSET -0.024144 -32.638630 -3.012600
					CHANNELS 3 Xrotation Yrotation Zrotation
					JOINT LeftToeBase
					{
						OFFSET 0.970200 -13.225400 11.864200
						CHANNELS 3 Xrotation Yrotation Zrotation
						End Site
						{
							OFFSET 0.000000 12.319262 0.000000
						}
					}
					JOINT LFootTongue
					{
						OFFSET 1.142400 -1.059800 6.665200
						CHANNELS 3 Xrotation Yrotation Zrotation
						End Site
						{
							OFFSET 0.000000 12.319262 0.000000
						}
					}
				}
				JOINT LeftPantLeg
				{
					OFFSET 0.918482 -16.533964 -2.284700
					CHANNELS 3 Xrotation Yrotation Zrotation
					End Site
					{
						OFFSET 0.350399 24.744368 0.000000
					}
				}
			}
		}
		JOINT RightUpLeg
		{
			OFFSET -8.479700 -4.795502 -0.379100
			CHANNELS 3 Xrotation Yrotation Zrotation
			JOINT RightLeg
			{
				OFFSET -0.023144 -32.555092 0.112900
				CHANNELS 3 Xrotation Yrotation Zrotation
				JOINT RightFoot
				{
					OFFSET 0.023144 -32.638641 -3.012700
					CHANNELS 3 Xrotation Yrotation Zrotation
					JOINT RightToeBase
					{
						OFFSET -0.970200 -13.225400 11.864200
						CHANNELS 3 Xrotation Yrotation Zrotation
						End Site
						{
							OFFSET 0.000000 12.319244 0.000000
						}
					}
					JOINT RFootTongue
					{
						OFFSET -1.142200 -1.059800 6.665200
						CHANNELS 3 Xrotation Yrotation Zrotation
						End Site
						{
							OFFSET 0.000000 12.319243 0.000000
						}
					}
				}
				JOINT RightPantLeg
				{
					OFFSET -0.919482 -16.533978 -2.284800
					CHANNELS 3 Xrotation Yrotation Zrotation
					End Site
					{
						OFFSET -0.350400 24.744419 0.000000
					}
				}
			}
		}
	}
	JOINT Spine
	{
		OFFSET 0.000000 7.722000 1.166200
		CHANNELS 3 Xrotation Yrotation Zrotation
		JOINT Spine1
		{
			OFFSET 0.000000 12.024101 0.248800
			CHANNELS 3 Xrotation Yrotation Zrotation
			JOINT Spine2
			{
				OFFSET 0.000000 11.502998 -0.491200
				CHANNELS 3 Xrotation Yrotation Zrotation
				JOINT Neck
				{
					OFFSET 0.000000 18.430702 -3.123100
					CHANNELS 3 Xrotation Yrotation Zrotation
					JOINT Head
					{
						OFFSET 0.000000 9.051102 1.034000
						CHANNELS 3 Xrotation Yrotation Zrotation
						JOINT HairB
						{
							OFFSET 0.208400 24.786102 24.822300
							CHANNELS 3 Xrotation Yrotation Zrotation
							End Site
							{
								OFFSET 0.000000 32.263779 0.000000
							}
						}
						JOINT HairA
						{
							OFFSET -7.081100 24.428299 23.196600
							CHANNELS 3 Xrotation Yrotation Zrotation
							End Site
							{
								OFFSET 0.000000 32.263779 0.000000
							}
						}
						JOINT Hat
						{
							OFFSET 16.728800 15.048294 -15.439601
							CHANNELS 3 Xrotation Yrotation Zrotation
							End Site
							{
								OFFSET 0.000000 32.263779 0.000000
							}
						}
					}
				}
				JOINT LeftShoulder
				{
					OFFSET 6.197800 13.665199 -4.064700
					CHANNELS 3 Xrotation Yrotation Zrotation
					JOINT LeftArm
					{
						OFFSET 7.778100 -0.187103 -1.709300
						CHANNELS 3 Xrotation Yrotation Zrotation
						JOINT LeftForeArm
						{
							OFFSET 22.049376 0.000000 0.000000
							CHANNELS 3 Xrotation Yrotation Zrotation
							JOINT LeftHand
							{
								OFFSET 23.009392 0.000000 0.000000
								CHANNELS 3 Xrotation Yrotation Zrotation
								JOINT LeftHandThumb1
								{
									OFFSET 3.507191 -2.063065 3.133727
									CHANNELS 3 Xrotation Yrotation Zrotation
									JOINT LeftHandThumb2
									{
										OFFSET 3.101337 -1.790558 1.790558
										CHANNELS 3 Xrotation Yrotation Zrotation
										JOINT LeftHandThumb3
										{
											OFFSET 3.058640 -1.765907 1.765906
											CHANNELS 3 Xrotation Yrotation Zrotation
											End Site
											{
												OFFSET -0.415260 3.926476 -0.049563
											}
										}
									}
								}
								JOINT LeftHandIndex1
								{
									OFFSET 11.334419 -0.901459 3.706815
									CHANNELS 3 Xrotation Yrotation Zrotation
									JOINT LeftHandIndex2
									{
										OFFSET 3.283112 0.000000 0.000000
										CHANNELS 3 Xrotation Yrotation Zrotation
										JOINT LeftHandIndex3
										{
											OFFSET 3.323853 0.000000 0.000000
											CHANNELS 3 Xrotation Yrotation Zrotation
											End Site
											{
												OFFSET -1.135597 3.097809 0.402452
											}
										}
									}
								}
								JOINT LeftHandMiddle1
								{
									OFFSET 11.335861 0.000000 0.000000
									CHANNELS 3 Xrotation Yrotation Zrotation
									JOINT LeftHandMiddle2
									{
										OFFSET 3.410492 0.000000 0.000000
										CHANNELS 3 Xrotation Yrotation Zrotation
										JOINT LeftHandMiddle3
										{
											OFFSET 3.312172 0.000000 0.000000
											CHANNELS 3 Xrotation Yrotation Zrotation
											End Site
											{
												OFFSET -1.150200 3.080154 0.400270
											}
										}
									}
								}
								JOINT LeftHandRing1
								{
									OFFSET 11.514786 -0.013176 -3.003090
									CHANNELS 3 Xrotation Yrotation Zrotation
									JOINT LeftHandRing2
									{
										OFFSET 3.053307 0.000000 0.000000
										CHANNELS 3 Xrotation Yrotation Zrotation
										JOINT LeftHandRing3
										{
											OFFSET 3.295807 0.000000 0.000000
											CHANNELS 3 Xrotation Yrotation Zrotation
											End Site
											{
												OFFSET -1.281006 3.013344 0.375733
											}
										}
									}
								}
								JOINT LeftHandPinky1
								{
									OFFSET 10.518692 -0.960396 -5.730441
									CHANNELS 3 Xrotation Yrotation Zrotation
									JOINT LeftHandPinky2
									{
										OFFSET 2.861649 0.000000 0.000000
										CHANNELS 3 Xrotation Yrotation Zrotation
										JOINT LeftHandPinky3
										{
											OFFSET 2.863380 0.000000 0.000000
											CHANNELS 3 Xrotation Yrotation Zrotation
											End Site
											{
												OFFSET -0.843597 2.711159 0.369971
											}
										}
									}
								}
							}
							JOINT LSleeve
							{
								OFFSET 6.676277 -0.344902 -1.011730
								CHANNELS 3 Xrotation Yrotation Zrotation
								End Site
								{
									OFFSET 0.000000 14.885353 0.000000
								}
							}
						}
					}
				}
				JOINT RightShoulder
				{
					OFFSET -6.197800 13.665199 -4.064700
					CHANNELS 3 Xrotation Yrotation Zrotation
					JOINT RightArm
					{
						OFFSET -7.778100 -0.187103 -1.709300
						CHANNELS 3 Xrotation Yrotation Zrotation
						JOINT RightForeArm
						{
							OFFSET -22.049376 0.000000 0.000000
							CHANNELS 3 Xrotation Yrotation Zrotation
							JOINT RightHand
							{
								OFFSET -23.009392 0.000000 0.000000
								CHANNELS 3 Xrotation Yrotation Zrotation
								JOINT RightHandThumb1
								{
									OFFSET -3.507191 -2.063065 3.133727
									CHANNELS 3 Xrotation Yrotation Zrotation
									JOINT RightHandThumb2
									{
										OFFSET -3.101337 -1.790558 1.790558
										CHANNELS 3 Xrotation Yrotation Zrotation
										JOINT RightHandThumb3
										{
											OFFSET -3.058640 -1.765907 1.765906
											CHANNELS 3 Xrotation Yrotation Zrotation
											End Site
											{
												OFFSET 0.415260 3.926476 -0.049563
											}
										}
									}
								}
								JOINT RightHandIndex1
								{
									OFFSET -11.334419 -0.901459 3.706815
									CHANNELS 3 Xrotation Yrotation Zrotation
									JOINT RightHandIndex2
									{
										OFFSET -3.283112 0.000000 0.000000
										CHANNELS 3 Xrotation Yrotation Zrotation
										JOINT RightHandIndex3
										{
											OFFSET -3.323853 0.000000 0.000000
											CHANNELS 3 Xrotation Yrotation Zrotation
											End Site
											{
												OFFSET 1.135597 3.097809 0.402452
											}
										}
									}
								}
								JOINT RightHandMiddle1
								{
									OFFSET -11.335861 0.000000 0.000000
									CHANNELS 3 Xrotation Yrotation Zrotation
									JOINT RightHandMiddle2
									{
										OFFSET -3.410492 0.000000 0.000000
										CHANNELS 3 Xrotation Yrotation Zrotation
										JOINT RightHandMiddle3
										{
											OFFSET -3.312172 0.000000 0.000000
											CHANNELS 3 Xrotation Yrotation Zrotation
											End Site
											{
												OFFSET 1.150200 3.080154 0.400270
											}
										}
									}
								}
								JOINT RightHandRing1
								{
									OFFSET -11.514786 -0.013176 -3.003090
									CHANNELS 3 Xrotation Yrotation Zrotation
									JOINT RightHandRing2
									{
										OFFSET -3.053307 0.000000 0.000000
										CHANNELS 3 Xrotation Yrotation Zrotation
										JOINT RightHandRing3
										{
											OFFSET -3.295807 0.000000 0.000000
											CHANNELS 3 Xrotation Yrotation Zrotation
											End Site
											{
												OFFSET 1.281006 3.013344 0.375733
											}
										}
									}
								}
								JOINT RightHandPinky1
								{
									OFFSET -10.518692 -0.960396 -5.730441
									CHANNELS 3 Xrotation Yrotation Zrotation
									JOINT RightHandPinky2
									{
										OFFSET -2.861649 0.000000 0.000000
										CHANNELS 3 Xrotation Yrotation Zrotation
										JOINT RightHandPinky3
										{
											OFFSET -2.863380 0.000000 0.000000
											CHANNELS 3 Xrotation Yrotation Zrotation
											End Site
											{
												OFFSET 0.843597 2.711159 0.369971
											}
										}
									}
								}
							}
							JOINT RSleeve
							{
								OFFSET -6.676277 -0.344902 -1.011730
								CHANNELS 3 Xrotation Yrotation Zrotation
								End Site
								{
									OFFSET 0.000000 14.885353 0.000000
								}
							}
						}
					}
				}
				JOINT Backpack
				{
					OFFSET 0.000000 -2.471497 36.677502
					CHANNELS 3 Xrotation Yrotation Zrotation
					End Site
					{
						OFFSET 0.000000 20.427315 0.000000
					}
				}
				JOINT Hood
				{
					OFFSET 0.000000 18.754097 -10.431000
					CHANNELS 3 Xrotation Yrotation Zrotation
					JOINT Hood1
					{
						OFFSET 0.000000 -5.011002 -7.685901
						CHANNELS 3 Xrotation Yrotation Zrotation
						End Site
						{
							OFFSET 0.000000 9.175140 0.000000
						}
					}
				}
				JOINT LHoodieString
				{
					OFFSET 5.250500 16.397697 3.089900
					CHANNELS 3 Xrotation Yrotation Zrotation
					JOINT LHoodieString1
					{
						OFFSET 0.257700 -6.364304 3.694600
						CHANNELS 3 Xrotation Yrotation Zrotation
						JOINT LHoodieString2
						{
							OFFSET 0.000000 -9.643799 2.679100
							CHANNELS 3 Xrotation Yrotation Zrotation
							End Site
							{
								OFFSET 0.000000 10.009018 0.000000
							}
						}
					}
				}
				JOINT RHoodieString
				{
					OFFSET -5.250500 16.397697 3.089900
					CHANNELS 3 Xrotation Yrotation Zrotation
					JOINT RHoodieString1
					{
						OFFSET -0.257700 -6.364304 3.694600
						CHANNELS 3 Xrotation Yrotation Zrotation
						JOINT RHoodieString2
						{
							OFFSET 0.000000 -9.643799 2.679100
							CHANNELS 3 Xrotation Yrotation Zrotation
							End Site
							{
								OFFSET 0.000000 10.009018 0.000000
							}
						}
					}
				}
			}
			JOINT LBackpack_Strap
			{
				OFFSET 15.223200 -7.719803 -6.610900
				CHANNELS 3 Xrotation Yrotation Zrotation
				End Site
				{
					OFFSET 0.000000 16.040596 0.000000
				}
			}
			JOINT RBackpack_Strap
			{
				OFFSET -15.223000 -7.719803 -6.610900
				CHANNELS 3 Xrotation Yrotation Zrotation
				End Site
				{
					OFFSET 0.000000 16.040596 0.000000
				}
			}
		}
	}
	JOINT BoyFacialAnim_Joint
	{
		OFFSET 1.000000 -82.208099 -1.550900
		CHANNELS 3 Xrotation Yrotation Zrotation
		End Site
		{
			OFFSET 0.000000 30.012791 0.000000
		}
	}
}
MOTION
Frames: 4
Frame Time: 0.016667
-5.383550 66.813324 12.139690 15.246702 46.098381 -6.775541 -0.000000 -0.000002 0.000000 -70.988458 -10.719936 -29.556670 69.953493 -49.036981 5.275817 -6.795417 -1.538386 5.100383 -0.000000 -0.000002 -0.000000 -0.000000 -0.000002 -0.000000 -0.000000 0.000001 -0.000000 10.921696 -48.939197 3.004435 44.131153 13.646044 -9.125064 -19.377120 0.404575 -7.155169 -0.000004 -0.000001 -0.000001 -0.000004 -0.000001 -0.000001 -0.000003 0.000000 -0.000001 8.129887 8.029131 0.003004 2.381662 15.778997 -0.339816 2.403997 15.779103 -0.339332 24.492232 -34.509592 6.782141 -25.202423 -35.567472 -2.580322 0.000000 -0.000001 -0.000001 0.000000 -0.000001 -0.000001 0.000000 -0.000001 -0.000001 3.133504 -2.562303 -3.584627 -38.240750 7.071618 -29.653567 51.130328 1.007860 17.797863 -12.087058 -6.543433 6.823681 0.717878 -6.071420 10.111287 2.373409 19.986102 -2.038333 0.000000 0.000002 0.000001 9.749549 -2.596976 0.987087 -0.005785 0.241047 -8.886551 -0.000001 0.000001 -0.000003 9.008209 3.812764 -14.287946 0.043536 0.559781 -9.088831 0.000001 -0.000001 -0.000000 10.700156 16.687177 -35.234852 0.141863 0.238680 -28.896932 -0.000003 0.000003 0.000002 11.696362 25.216702 -38.134094 0.132798 0.212989 -32.263539 0.000001 0.000000 0.000001 0.000000 0.000002 -0.000000 -3.243330 8.889442 -18.987006 -18.337455 -10.441363 2.113098 144.016560 167.285922 -173.359395 -12.660201 -2.965757 -5.790694 9.279837 0.855304 2.186155 1.377841 -17.419895 3.021609 0.000005 -0.000000 0.000001 8.977443 0.914878 -26.573703 -0.055957 -0.245623 0.029069 0.000000 -0.000001 0.000002 7.645417 -7.256367 -8.401653 0.102454 -0.524307 3.712659 0.000004 -0.000000 -0.000002 6.495382 -19.152592 6.388331 0.205305 -0.177340 17.221788 -0.000003 0.000001 0.000001 8.267335 -27.952783 40.018075 0.357930 -0.175318 49.203184 0.000001 -0.000001 0.000000 0.000003 -0.000001 -0.000001 -0.000000 -0.000000 0.000002 -0.000000 -0.000000 0.000002 -0.000000 -0.000000 0.000002 -0.000000 -0.000000 0.000002 -0.000000 -0.000000 0.000000 -0.000000 0.000000 0.000002 -0.000000 -0.000000 0.000002 -0.000000 -0.000000 0.000000 -0.000000 0.000000 0.000002 0.000001 0.000001 0.000000 0.000001 0.000001 0.000000 -0.000000 -0.000002 0.000000 
-5.165249 66.942291 12.121580 14.839645 44.635508 -6.437446 0.000000 -0.000000 -0.000000 -70.617927 -10.737051 -28.806603 69.817347 -48.320952 5.143038 -7.047836 -1.563961 5.030776 -0.000000 0.000001 -0.000000 -0.000000 0.000001 -0.000000 -0.000000 -0.000003 0.000000 10.384729 -47.540589 2.207863 44.121116 14.272006 -9.083707 -19.093486 0.013250 -7.275110 0.000003 -0.000001 0.000000 0.000003 -0.000001 0.000000 -0.000001 0.000000 0.000000 8.162788 7.992169 -0.025954 2.453889 15.715425 -0.410868 2.476206 15.715458 -0.410363 24.483100 -34.297815 7.138970 -25.083007 -35.421955 -2.270467 -0.000000 -0.000000 0.000000 -0.000000 -0.000000 0.000000 -0.000000 -0.000000 0.000000 3.030143 -2.053845 -3.444212 -34.893640 7.814692 -28.841410 51.215234 1.798534 17.534520 -13.743623 -6.963577 5.081473 0.690160 -6.257996 9.347857 2.373405 19.986100 -2.038330 -0.000000 -0.000000 -0.000001 9.889666 -2.215703 0.150833 -0.005907 0.241167 -9.214059 0.000001 0.000001 -0.000002 9.055359 4.126233 -14.668275 0.045016 0.562284 -9.437248 0.000004 0.000002 0.000000 10.739795 16.814751 -35.132178 0.137653 0.239639 -28.699328 0.000003 0.000003 0.000000 11.760328 25.391508 -38.044324 0.132613 0.213273 -32.330359 -0.000002 0.000001 0.000003 0.000002 0.000001 0.000001 -3.234086 9.381079 -18.988032 -20.179970 -10.125692 2.111672 144.235208 166.478771 -172.151612 -12.150582 -4.188278 -6.691117 9.387994 0.822775 2.124788 1.377822 -17.419921 3.021600 -0.000004 0.000000 0.000001 9.067883 0.695028 -25.814427 -0.051501 -0.245688 0.064853 -0.000004 0.000001 -0.000002 7.626679 -7.125916 -7.923836 0.102852 -0.525820 3.951775 -0.000000 -0.000001 -0.000000 6.454422 -18.622953 6.787676 0.200236 -0.179018 17.261563 -0.000002 -0.000001 0.000002 7.978962 -28.024608 39.947160 0.355181 -0.175855 48.983303 -0.000003 -0.000003 -0.000002 0.000000 -0.000000 0.000001 0.000000 0.000000 -0.000002 0.000000 0.000000 -0.000002 0.000000 0.000000 -0.000002 0.000000 0.000000 -0.000002 0.000000 0.000000 -0.000001 -0.000002 -0.000000 -0.000001 0.000000 0.000000 -0.000002 0.000000 0.000000 -0.000001 -0.000002 -0.000000 -0.000001 -0.000000 -0.000002 0.000001 -0.000000 -0.000002 0.000001 0.000000 -0.000000 -0.000000 
-4.920507 67.075829 12.105156 14.315434 43.004917 -6.009862 0.000000 0.000001 -0.000000 -70.138755 -10.712459 -27.957837 69.701220 -47.518951 4.989011 -7.337252 -1.594433 4.949468 0.000000 -0.000001 0.000000 0.000000 -0.000001 -0.000000 0.000001 -0.000003 0.000001 9.873271 -46.026674 1.287444 43.892951 13.534466 -9.074916 -18.811383 0.929965 -6.766736 -0.000000 -0.000000 -0.000001 -0.000000 -0.000000 -0.000001 -0.000002 -0.000000 0.000000 8.186932 7.952150 -0.073283 2.510252 15.645950 -0.515675 2.532584 15.646041 -0.515180 24.400714 -34.088255 7.703141 -24.875698 -35.237649 -1.959299 0.000001 0.000001 -0.000001 0.000001 0.000001 -0.000001 0.000001 0.000001 -0.000001 2.904505 -1.393838 -3.364780 -31.432660 8.742947 -28.038413 51.355701 2.474099 17.546578 -14.985695 -7.308016 3.153640 0.630781 -6.463492 8.584040 2.373408 19.986103 -2.038332 -0.000001 -0.000001 0.000001 10.025383 -1.815703 -0.661301 -0.006035 0.241275 -9.522519 -0.000003 0.000001 -0.000005 9.103788 4.430303 -15.033813 0.046496 0.564835 -9.784023 0.000001 0.000001 -0.000001 10.772739 16.882083 -35.025306 0.133030 0.240862 -28.494057 0.000002 0.000001 -0.000000 11.843113 25.575831 -38.001144 0.132584 0.213754 -32.423847 -0.000000 0.000001 -0.000000 0.000001 0.000001 0.000001 -3.144802 9.710541 -18.951716 -22.316885 -9.294433 2.336565 144.310860 166.066214 -170.952094 -11.502428 -5.129986 -7.348379 9.669550 0.616304 2.214283 1.377782 -17.419901 3.021582 0.000002 0.000002 -0.000001 9.166957 0.351643 -24.705363 -0.047722 -0.246342 0.536675 -0.000002 0.000002 0.000000 7.623376 -7.047113 -7.050679 0.103806 -0.528116 4.369233 -0.000003 -0.000001 0.000003 6.475558 -18.077214 7.614150 0.194438 -0.181337 17.489913 0.000001 0.000001 -0.000001 7.820600 -27.942551 40.349998 0.353079 -0.176045 48.987114 0.000001 -0.000003 -0.000002 -0.000001 -0.000001 -0.000001 -0.000001 0.000000 0.000001 -0.000001 0.000000 0.000001 -0.000001 0.000000 0.000001 -0.000001 0.000000 0.000001 -0.000001 0.000000 0.000000 -0.000001 0.000000 0.000002 -0.000001 0.000000 0.000001 -0.000001 0.000000 0.000000 -0.000001 0.000000 0.000002 0.000001 -0.000001 0.000000 0.000001 -0.000001 0.000000 0.000000 0.000001 -0.000000 
-4.655206 67.211388 12.084737 13.707177 41.284047 -5.532101 -0.000001 0.000000 0.000000 -69.574916 -10.679117 -27.087091 69.602524 -46.622270 4.835753 -7.661810 -1.626177 4.840319 0.000000 -0.000001 0.000000 0.000000 -0.000001 -0.000000 0.000000 0.000006 -0.000000 9.420226 -44.501145 0.303452 43.832288 13.759648 -9.016464 -18.527950 1.000972 -6.589252 -0.000002 -0.000000 -0.000000 -0.000002 -0.000000 -0.000000 0.000002 -0.000000 -0.000000 8.222851 7.883279 -0.122318 2.590915 15.519597 -0.627977 2.613262 15.519691 -0.627487 23.964941 -33.896497 8.093912 -24.622555 -35.034219 -1.643723 -0.000001 0.000001 -0.000000 -0.000001 0.000001 -0.000000 -0.000001 0.000001 -0.000000 2.760278 -0.547897 -3.344334 -27.854189 9.898217 -27.279950 51.514356 3.115299 17.933621 -15.929266 -7.467004 0.985755 0.527118 -6.696447 7.834180 2.373407 19.986105 -2.038335 0.000003 0.000000 0.000002 10.153724 -1.387425 -1.422221 -0.006222 0.241385 -9.803563 -0.000002 -0.000003 0.000001 9.151805 4.724947 -15.358932 0.048166 0.567343 -10.114808 -0.000002 0.000000 0.000002 10.792677 16.881067 -34.884600 0.127717 0.242414 -28.266106 0.000000 0.000002 -0.000000 11.932749 25.749461 -37.966716 0.132593 0.214268 -32.522099 -0.000003 -0.000000 -0.000002 -0.000003 -0.000000 0.000000 -3.150914 9.830084 -18.703804 -24.875225 -7.756464 2.628347 144.587332 165.957478 -169.821821 -10.795662 -5.821790 -7.801416 10.147173 0.218074 2.483469 1.377805 -17.419890 3.021639 -0.000003 0.000001 0.000000 9.294116 -0.101590 -23.043805 -0.044949 -0.247251 1.135086 0.000003 0.000000 0.000002 7.644636 -7.010175 -5.719518 0.105625 -0.531404 5.013997 0.000001 0.000000 0.000002 6.566150 -17.505216 8.934423 0.187956 -0.184188 17.963230 -0.000002 -0.000002 0.000004 7.824139 -27.677431 41.312508 0.351850 -0.176007 49.270171 -0.000001 0.000000 -0.000003 -0.000002 0.000000 0.000001 -0.000000 0.000000 -0.000001 -0.000000 0.000000 -0.000001 -0.000000 0.000000 -0.000001 -0.000000 0.000000 -0.000001 -0.000000 0.000000 -0.000001 0.000001 -0.000000 -0.000001 -0.000000 0.000000 -0.000001 -0.000000 0.000000 -0.000001 0.000001 -0.000000 -0.000001 -0.000000 0.000003 -0.000000 -0.000000 0.000003 -0.000000 -0.000001 0.000000 0.000000 
